<svg width="393" height="393" viewBox="0 0 393 393" fill="none" xmlns="http://www.w3.org/2000/svg">
<rect width="392.172" height="392.172" rx="13" fill="#DEFF00"/>
<path d="M311.11 91.0855C300.77 87.791 289.923 86.1524 278.56 86.1524C264.219 86.1524 250.568 88.9311 237.625 94.505C224.681 100.071 213.269 108.082 203.395 118.539C199.51 122.699 195.983 127.108 192.831 131.775L218.384 182.64C219.591 185.044 223.167 184.545 223.658 181.899C225.921 169.736 230.896 159.312 238.598 150.627C249.496 138.331 263.512 132.183 280.648 132.183C290.522 132.183 299.946 134.454 308.938 139.005C317.922 143.555 326.798 150.527 335.549 159.911L340.715 106.035C331.307 99.355 321.433 94.3718 311.101 91.0774L311.11 91.0855Z" fill="black"/>
<path d="M70.8497 259.477H117.291L112.026 273.17L98.891 303.81H50.2783L70.8497 259.477Z" fill="black"/>
<path d="M341.414 243.812L339.002 287.696C338.852 290.416 337.396 292.904 335.1 294.376C327.447 299.276 319.196 303.103 310.336 305.849C300.047 309.043 289.357 310.64 278.277 310.64C266.357 310.64 254.919 308.702 243.981 304.834C233.034 300.965 224.74 295.05 215.523 287.496C202.48 276.848 193.114 264.485 186.176 249.136C184.371 245.143 182.799 241.049 181.459 236.865L152.952 170.951L132.315 221.408H88.5098L153.926 80.4455C153.926 80.4455 230.33 233.612 232.576 237.115C234.315 239.818 236.269 242.372 238.449 244.785C249.254 256.74 263.321 262.721 280.64 262.721C290.888 262.721 301.103 260.5 311.302 256.041C319.512 252.455 327.705 247.431 335.891 240.958C338.195 239.136 341.564 240.883 341.397 243.812H341.414Z" fill="black"/>
</svg>
