<svg width="164" height="194" viewBox="0 0 164 194" fill="none" xmlns="http://www.w3.org/2000/svg">
<path d="M163.397 123.713C163.905 136.139 162.518 147.942 156.645 158.755C146.066 178.231 130.146 190.264 107.823 193.308C100.97 194.242 94.1262 193.836 87.2884 193.78C76.4942 193.691 65.6727 194.6 54.9051 193.219C36.5793 190.87 22.0421 182.037 11.392 167.053C3.45531 155.888 0.0308938 143.217 0.0668388 129.537C0.124489 107.596 0.330118 85.6524 0.00734637 63.7168C-0.499558 29.267 25.3046 5.1952 53.0823 1.0654C56.6841 0.529894 60.2951 0.132433 63.9104 0.101507C76.0753 -0.00256742 88.2431 -0.0554699 100.407 0.0863669C128.196 0.410338 149.332 17.2171 158.582 38.9801C161.814 46.5834 163.451 54.5533 163.417 62.8837C163.336 83.0558 163.395 103.229 163.397 123.713ZM106.184 56.4303C110.927 51.6244 115.663 46.8125 120.416 42.0168C121.607 40.8152 122.181 39.7624 120.391 38.5104C113.34 33.5792 105.67 30.415 96.9587 30.3572C86.671 30.2889 76.3822 30.4 66.0943 30.3476C50.8214 30.2699 39.6266 36.9323 32.604 50.497C30.7198 54.1367 29.8265 58.0589 29.8276 62.1812C29.8335 83.3809 29.8184 104.581 29.8263 125.78C29.827 127.625 29.635 129.593 31.2044 130.372C56.2088 105.721 81.0467 81.2346 106.184 56.4303ZM134.193 69.7154C134.071 69.0802 133.909 68.3278 133.063 68.9056C132.214 69.4858 131.467 70.2318 130.736 70.9648C111.939 89.7932 93.1487 108.629 74.3593 127.465C65.7719 136.073 57.1493 144.648 48.6247 153.318C45.7666 156.225 46.013 157.384 49.5544 159.476C53.5921 161.861 58.0761 162.742 62.6769 162.774C75.3566 162.863 88.0373 162.799 100.718 162.81C103.432 162.813 106.089 162.372 108.694 161.702C124.543 157.624 133.935 144.466 134.18 127.822C134.462 108.598 134.231 89.3669 134.193 69.7154Z" fill="#002119"/>
</svg>
