<svg width="393" height="393" viewBox="0 0 393 393" fill="none" xmlns="http://www.w3.org/2000/svg">
<rect y="0.828369" width="392.172" height="392.172" rx="13" fill="black"/>
<path d="M311.11 91.9139C300.77 88.6194 289.923 86.9808 278.56 86.9808C264.219 86.9808 250.568 89.7595 237.625 95.3334C224.681 100.899 213.269 108.91 203.395 119.368C199.51 123.527 195.983 127.937 192.831 132.604L218.384 183.468C219.591 185.872 223.167 185.373 223.658 182.727C225.921 170.565 230.896 160.141 238.598 151.455C249.496 139.159 263.512 133.011 280.648 133.011C290.522 133.011 299.946 135.282 308.938 139.833C317.922 144.384 326.798 151.355 335.549 160.739L340.715 106.864C331.307 100.183 321.433 95.2002 311.101 91.9057L311.11 91.9139Z" fill="#DEFF00"/>
<path d="M70.8497 260.305H117.291L112.026 273.999L98.891 304.639H50.2783L70.8497 260.305Z" fill="#DEFF00"/>
<path d="M341.414 244.64L339.001 288.524C338.852 291.245 337.396 293.732 335.1 295.205C327.447 300.105 319.195 303.932 310.336 306.677C300.046 309.872 289.357 311.469 278.277 311.469C266.357 311.469 254.919 309.53 243.98 305.662C233.033 301.794 224.74 295.879 215.523 288.325C202.48 277.676 193.114 265.313 186.176 249.964C184.371 245.971 182.798 241.878 181.459 237.693L152.952 171.779L132.314 222.236H88.5095L153.926 81.2738C153.926 81.2738 230.33 234.441 232.576 237.943C234.314 240.647 236.269 243.201 238.449 245.613C249.254 257.568 263.32 263.55 280.639 263.55C290.888 263.55 301.103 261.329 311.301 256.869C319.512 253.284 327.705 248.259 335.89 241.787C338.195 239.965 341.563 241.712 341.397 244.64H341.414Z" fill="#DEFF00"/>
</svg>
